PathFileType	4	(X/Y/Z)	pose2sim_0-1073.trc
DataRate	CameraRate	NumFrames	NumMarkers	Units	OrigDataRate	OrigDataStartFrame	OrigNumFrames
50	50	6	22	m	50	671	1074
Frame#	Time	Hip			RHip			RKnee			RAnkle			RBigToe			RSmallToe			RHeel			LHip			LKnee			LAnkle			LBigToe			LSmallToe			LHeel			Neck			Head			Nose			RShoulder			RElbow			RWrist			LShoulder			LElbow			LWrist			
		X1	Y1	Z1	X2	Y2	Z2	X3	Y3	Z3	X4	Y4	Z4	X5	Y5	Z5	X6	Y6	Z6	X7	Y7	Z7	X8	Y8	Z8	X9	Y9	Z9	X10	Y10	Z10	X11	Y11	Z11	X12	Y12	Z12	X13	Y13	Z13	X14	Y14	Z14	X15	Y15	Z15	X16	Y16	Z16	X17	Y17	Z17	X18	Y18	Z18	X19	Y19	Z19	X20	Y20	Z20	X21	Y21	Z21	X22	Y22	Z22	
671	13.42	0.10124377833316549	0.8399742045611426	-0.0496990855548405	0.000606621119827203	0.8306068648205102	-0.04668798029988762	-0.013111101733012833	0.44752638245920645	-0.0698258705944849	-0.042213067131926914	0.07224329550073615	-0.1086624583570719	-0.06972905827610648	0.028334536518447768	0.05115502882086108	-0.108050974948238	0.03102815779323863	-0.006744633761008274	-0.03333040551990302	0.03624038163076043	-0.14329909109883332	0.20419142764655504	0.8314612267699176	-0.05079396297779211	0.21998655954115603	0.44870887102653745	-0.0794663603176072	0.24510555923119556	0.07451424387946284	-0.10840404905066196	0.26003103813796996	0.028562039929093307	0.06670979265512392	0.30214524943056514	0.03419683060209055	0.02206936460555295	0.23877597725975275	0.0334041843959974	-0.14474549000197234	0.11109885272227712	1.425443953013957	-0.05043604624887125	0.11203398982434132	1.6583662868176972	-0.01799173776439599	0.110314433284629	1.5396307804001204	0.0992287193328766	-0.06403257559510347	1.3273400932851782	-0.06791604724376805	-0.1389084142449106	1.0721245419264003	-0.057616740517197985	-0.15063219342302261	1.157128196552153	0.17402959671025717	0.2822961357709317	1.3214353084882213	-0.08509635128680769	0.34718503036656984	1.0665060441337935	-0.07207254511226704	0.3731118499509844	1.1417839611552558	0.13627255817845424
672	13.44	0.10136428075516782	0.8429796748248656	-0.05180246783511638	0.0007348334478339457	0.8330728942156562	-0.04235935829787129	-0.013416024971606677	0.4431870197269373	-0.06329269561595036	-0.04333920180126829	0.07256670164545553	-0.10153505293129961	-0.06874532170433524	0.03350572798363894	0.06480125339712912	-0.10839495441255417	0.0351852119114334	0.0066238490051708674	-0.03697180611991642	0.030227170430311312	-0.14182329081537542	0.203403078086978	0.8297941906551284	-0.04677927247084738	0.21959195303620002	0.446807551047627	-0.08101068774386784	0.24675700414383092	0.07189736108075269	-0.1102117866171183	0.2535516154420663	0.02805938113822907	0.06592279288470261	0.28954754006831634	0.026945118007419076	0.013654832315132802	0.24208434788638297	0.034220875455166055	-0.14036292440180279	0.11166015778647671	1.427791542568061	-0.056022067393697875	0.11318651437152188	1.654761193885316	-0.01807637429317701	0.10503759161829444	1.5479744268412836	0.11474740148818002	-0.0684257509438077	1.3232657186138372	-0.07263080650363221	-0.1401826186963459	1.0647803944668197	-0.05169274286879063	-0.13737089589578588	1.174374733669025	0.1861628564513849	0.28425187138030417	1.3193981230862593	-0.07796552336237642	0.34800833076958587	1.0612428962244738	-0.07681225704747206	0.37757084398238777	1.1498101145757007	0.14561528246531813
673	13.46	0.1027397832642021	0.8415828597977205	-0.04773623152808401	0.0008754952807871548	0.8309312576385106	-0.04118117357818478	-0.011892012931645927	0.44521941773918783	-0.07246730902089407	-0.043772494190677684	0.07177766057597583	-0.10449793189388916	-0.0679215699559347	0.030313106736750386	0.0485016701308632	-0.10777095389067963	0.0332153953532567	-0.010633917683416705	-0.03404332774305533	0.036344286756030186	-0.14378092723525704	0.20631064474493285	0.8306284693043798	-0.051536918857841056	0.22201901931684734	0.44765231025714275	-0.08038297178842868	0.246934311786572	0.07424025383813897	-0.10910978223481463	0.25837141744683817	0.02851382866376111	0.056085511875240385	0.2996779919458101	0.03151444837578407	0.012378292634056645	0.24123414865758472	0.03615456527589508	-0.1460502887102889	0.11084258212940683	1.424557179870358	-0.05111157187910516	0.11457858261451709	1.6567731219948827	-0.01329854566706263	0.11316231641797175	1.5405977844912484	0.10378462410661846	-0.059915155492890615	1.3300068506187392	-0.07228553722798306	-0.1392992157378932	1.0726940563936398	-0.057873640125375436	-0.1323584510447964	1.1816299532896337	0.1887807623943372	0.2829628093796129	1.3216443870052992	-0.08158695255185253	0.3507099894088713	1.0709866130407273	-0.07208511500730208	0.37191841834708167	1.1635265989665617	0.12686421927325336
674	13.48	0.10341429157736798	0.839494285288529	-0.04631792666333252	0.001277128391649471	0.827656434211616	-0.03987110192326327	-0.011082292329330402	0.44460271250816963	-0.0678683499020667	-0.04170377739851935	0.07511373895182515	-0.1065846080840231	-0.07123054257195122	0.029949182215758784	0.05151197410537238	-0.11026997440683739	0.0325100706186371	-0.00909271945684096	-0.03290412001491584	0.039532103398214676	-0.14746616025000414	0.2053850158376562	0.8259811109812023	-0.04670081812864617	0.22234481049324994	0.44563170649806483	-0.07914825394409432	0.24799184585762274	0.074831546207981	-0.11266998903210887	0.25938768102381393	0.03046339802954392	0.057271360561008074	0.29670162765340874	0.036051835894606525	0.012583022414361439	0.24214435489598024	0.03651313145182445	-0.1462864914455278	0.11009852380322704	1.423957719167408	-0.04652311900195447	0.11390378065890826	1.6563970220627997	-0.008569795696568133	0.11154092422400133	1.5401862654249063	0.10570063272132386	-0.06200040984434555	1.330663899074848	-0.06986811845868753	-0.14169789859353454	1.0710716530027244	-0.06127516764576056	-0.13352106576969378	1.1875485140649713	0.17475042464331916	0.2838149297186888	1.3224123322291315	-0.08034060037660241	0.350422791839982	1.0685907850421612	-0.06744312315896625	0.3679540843856507	1.1684616410094966	0.12197404591660335
675	13.5	0.10289216474389125	0.8422372791559133	-0.04399466699390017	0.0020184533958015503	0.830221166024261	-0.04031760252855119	-0.010452366915512904	0.4459728257872242	-0.06918452783486553	-0.043770555621609974	0.07542854014891812	-0.1064512857282878	-0.07240881310275459	0.030016351062279425	0.04649643805132033	-0.1095899042391164	0.03285148613720732	-0.009456685025208241	-0.03506459331056573	0.03874620138772532	-0.14836902794148124	0.20615524576907265	0.8286840876749363	-0.046062868358413354	0.22290246161522173	0.4471070449514656	-0.07717560889983086	0.24709487129243302	0.07816805204156638	-0.11250403039720681	0.2591363210732963	0.03096423757463442	0.05253770646140313	0.299000163995807	0.03530431761115478	0.00928173680834345	0.24158252919347972	0.03835612318002058	-0.1478281728692114	0.11229125170040857	1.4260321096051833	-0.0449171823205269	0.11209194349484018	1.658253411233318	-0.004429602347308799	0.1065103969772023	1.542407954797379	0.11033069458121574	-0.06265582298697053	1.3304063290690595	-0.06894099466714719	-0.14196366835160779	1.0759876238244672	-0.060751491594227096	-0.13392114040659872	1.1985988677710047	0.1729402576536638	0.2842971393670078	1.3222033668002506	-0.08121915689275643	0.3523835570219871	1.0686190034827685	-0.06601698211305367	0.36133604308773104	1.1786398721242097	0.12480084534351439
676	13.52	0.10371660525241125	0.8444070077508848	-0.04551160741870561	0.0012442186248173845	0.8325198755447101	-0.0367556960754964	-0.011990980446963668	0.44633445942489175	-0.06385163750527527	-0.04312759460081178	0.07050470274743387	-0.10549990653857684	-0.0694611202035638	0.035758684318813586	0.07415906265680673	-0.10841890565762063	0.03731755758438245	0.015005700969537959	-0.03697629732711563	0.02927760142551495	-0.14389336674701939	0.20441840548250484	0.8326947845504913	-0.04752865724419581	0.21961223422374457	0.4478088616294507	-0.07720827254814115	0.24773218890351473	0.07087035519319511	-0.11069747338424345	0.24928777641693592	0.030398163019366965	0.06976917943242193	0.2838738489200574	0.03046106985327889	0.023742774783082333	0.24181455791595843	0.031013203263802504	-0.14236873256405616	0.11062216379040507	1.4278677874471937	-0.0420472508832938	0.10990380169965487	1.655395200954825	0.0019056834335101963	0.10828177649726546	1.5446125990126227	0.11458663613645761	-0.06679097295464469	1.328629114330796	-0.06418626147690475	-0.14666102689639643	1.0713962739550669	-0.056850854945954196	-0.13070569792727027	1.210397654888634	0.15154018430157676	0.28534906809955923	1.3225914738181863	-0.0740325970799128	0.3498122251485224	1.0576073001438926	-0.07400771228045194	0.34732781531741125	1.1764396462910354	0.12899534627965023
